# Blender v2.72 (sub 0) OBJ File: ''
# www.blender.org
o Cube_Cube.001
v -13.324198 -13.324198 13.324198
v -13.324198 -13.324198 -13.324198
v 13.324198 -13.324198 -13.324198
v 13.324198 -13.324198 13.324198
v -13.324198 13.324198 13.324198
v -13.324198 13.324198 -13.324198
v 13.324198 13.324198 -13.324198
v 13.324198 13.324198 13.324198
vt 0.254410 0.339207
vt 0.254530 0.662856
vt 0.001884 0.664137
vt 0.003131 0.338326
vt 0.998554 0.337631
vt 0.997782 0.664643
vt 0.759079 0.663292
vt 0.761309 0.336996
vt 0.497703 0.663372
vt 0.497910 0.337868
vt 0.498028 0.993698
vt 0.254855 0.996463
vt 0.252620 0.003134
vt 0.499631 0.003025
vn 1.000000 0.000000 0.000000
vn 0.000000 0.000000 1.000000
vn -1.000000 0.000000 0.000000
vn 0.000000 0.000000 -1.000000
vn 0.000000 1.000000 0.000000
vn 0.000000 -1.000000 0.000000
s off
f 5/1/1 1/2/1 2/3/1 6/4/1
f 6/5/2 2/6/2 3/7/2 7/8/2
f 7/8/3 3/7/3 4/9/3 8/10/3
f 8/10/4 4/9/4 1/2/4 5/1/4
f 1/2/5 4/9/5 3/11/5 2/12/5
f 8/10/6 5/1/6 6/13/6 7/14/6
